<svg aria-hidden="true" style="position: absolute; width: 0; height: 0; overflow: hidden;" version="1.1" xmlns="http://www.w3.org/2000/svg" xmlns:xlink="http://www.w3.org/1999/xlink">
<defs>
<symbol id="icon-chevron-thin-down" viewBox="0 0 20 20">
<title>chevron-thin-down</title>
<path d="M17.418 6.109c0.272-0.268 0.709-0.268 0.979 0s0.271 0.701 0 0.969l-7.908 7.83c-0.27 0.268-0.707 0.268-0.979 0l-7.908-7.83c-0.27-0.268-0.27-0.701 0-0.969s0.709-0.268 0.979 0l7.419 7.141 7.418-7.141z"></path>
</symbol>
<symbol id="icon-open-book" viewBox="0 0 20 20">
<title>open-book</title>
<path d="M10.595 5.196l0.446 1.371c0.369-0.316 0.835-0.599 1.441-0.795 0.59-0.192 1.111-0.3 1.582-0.362l-0.43-1.323c-0.476 0.069-1.001 0.18-1.58 0.368s-1.055 0.45-1.459 0.741zM11.522 8.051l0.446 1.371c0.369-0.316 0.835-0.599 1.441-0.795 0.59-0.192 1.111-0.3 1.582-0.362l-0.43-1.323c-0.476 0.069-1.001 0.18-1.58 0.368-0.578 0.187-1.054 0.449-1.459 0.741zM12.45 10.905l0.446 1.371c0.369-0.316 0.835-0.599 1.441-0.795 0.59-0.192 1.111-0.3 1.582-0.362l-0.43-1.323c-0.476 0.069-1.001 0.18-1.58 0.368-0.579 0.187-1.055 0.45-1.459 0.741zM5.388 13.077l0.43 1.323c0.417-0.226 0.902-0.445 1.492-0.636 0.606-0.197 1.149-0.242 1.633-0.203l-0.446-1.371c-0.499 0.002-1.038 0.070-1.615 0.257-0.579 0.188-1.069 0.406-1.494 0.63zM3.533 7.368l0.43 1.323c0.417-0.226 0.902-0.444 1.492-0.636 0.606-0.197 1.149-0.242 1.633-0.203l-0.445-1.372c-0.499 0.003-1.038 0.070-1.616 0.258-0.579 0.188-1.069 0.406-1.494 0.63zM4.46 10.223l0.43 1.323c0.417-0.226 0.902-0.445 1.492-0.636 0.606-0.197 1.149-0.242 1.633-0.203l-0.445-1.372c-0.499 0.002-1.038 0.070-1.615 0.257-0.579 0.188-1.070 0.407-1.495 0.631zM11.064 1.41c-1.723 0.56-2.623 1.752-3.053 2.559-0.822-0.4-2.25-0.835-3.973-0.275-2.523 0.82-3.969 2.627-3.969 2.627l4.095 12.587c0.126 0.387 0.646 0.477 0.878 0.143 0.499-0.719 1.46-1.658 3.257-2.242 1.718-0.558 2.969 0.054 3.655 0.578 0.272 0.208 0.662 0.060 0.762-0.268 0.252-0.827 0.907-2.040 2.61-2.593 1.799-0.585 3.129-0.389 3.956-0.1 0.385 0.134 0.75-0.242 0.625-0.629l-4.088-12.594c0 0-2.232-0.612-4.755 0.207zM10.951 15.256c-0.819-0.244-1.901-0.358-3.141 0.044-1.251 0.406-2.127 0.949-2.699 1.404l-3.245-9.982c0.358-0.358 1.187-1.042 2.662-1.521 1.389-0.451 2.528-0.065 3.279 0.378l3.144 9.677zM17.845 12.567c-0.731-0.032-1.759 0.044-3.010 0.451-1.24 0.403-2.048 1.132-2.567 1.81l-3.144-9.677c0.346-0.8 1.040-1.782 2.43-2.233 1.474-0.479 2.547-0.413 3.047-0.334l3.244 9.983z"></path>
</symbol>
<symbol id="icon-bell1" viewBox="0 0 20 20">
<title>bell1</title>
<path d="M14.65 8.512c-2.28-4.907-3.466-6.771-7.191-6.693-1.327 0.027-1.009-0.962-2.021-0.587-1.010 0.375-0.143 0.924-1.177 1.773-2.902 2.383-2.635 4.587-1.289 9.84 0.567 2.213-1.367 2.321-0.602 4.465 0.559 1.564 4.679 2.219 9.025 0.607s7.086-4.814 6.527-6.378c-0.765-2.145-2.311-0.961-3.272-3.027zM10.924 16.595c-3.882 1.44-7.072 0.594-7.207 0.217-0.232-0.65 1.253-2.816 5.691-4.463s6.915-1.036 7.174-0.311c0.153 0.429-1.775 3.116-5.658 4.557zM9.676 13.101c-2.029 0.753-3.439 1.614-4.353 2.389 0.643 0.584 1.847 0.726 3.046 0.281 1.527-0.565 2.466-1.866 2.095-2.904-0.005-0.013-0.011-0.023-0.016-0.036-0.251 0.082-0.508 0.171-0.772 0.27z"></path>
</symbol>
<symbol id="icon-heart1" viewBox="0 0 20 20">
<title>heart1</title>
<path d="M17.19 4.155c-1.672-1.534-4.383-1.534-6.055 0l-1.135 1.042-1.136-1.042c-1.672-1.534-4.382-1.534-6.054 0-1.881 1.727-1.881 4.52 0 6.246l7.19 6.599 7.19-6.599c1.88-1.726 1.88-4.52 0-6.246z"></path>
</symbol>
<symbol id="icon-magnifying-glass" viewBox="0 0 20 20">
<title>magnifying-glass</title>
<path d="M17.545 15.467l-3.779-3.779c0.57-0.935 0.898-2.035 0.898-3.21 0-3.417-2.961-6.377-6.378-6.377s-6.186 2.769-6.186 6.186c0 3.416 2.961 6.377 6.377 6.377 1.137 0 2.2-0.309 3.115-0.844l3.799 3.801c0.372 0.371 0.975 0.371 1.346 0l0.943-0.943c0.371-0.371 0.236-0.84-0.135-1.211zM4.004 8.287c0-2.366 1.917-4.283 4.282-4.283s4.474 2.107 4.474 4.474c0 2.365-1.918 4.283-4.283 4.283s-4.473-2.109-4.473-4.474z"></path>
</symbol>
<symbol id="icon-star" viewBox="0 0 20 20">
<title>star</title>
<path d="M10 1.3l2.388 6.722h6.412l-5.232 3.948 1.871 6.928-5.439-4.154-5.438 4.154 1.87-6.928-5.233-3.948h6.412l2.389-6.722z"></path>
</symbol>
</defs>
</svg>
